HIERARCHY
ROOT Hips
{
	OFFSET 0.000000 0.000000 0.000000
	CHANNELS 6 Xposition Yposition Zposition Zrotation Yrotation Xrotation 
	JOINT LHipJoint
	{
		OFFSET 0.000000 0.000000 0.000000
		CHANNELS 3 Zrotation Yrotation Xrotation
		JOINT LeftUpLeg
		{
			OFFSET 1.363060 -1.794630 0.839290
			CHANNELS 3 Zrotation Yrotation Xrotation
			JOINT LeftLeg
			{
				OFFSET 2.448110 -6.726130 0.000000
				CHANNELS 3 Zrotation Yrotation Xrotation
				JOINT LeftFoot
				{
					OFFSET 2.562200 -7.039590 0.000000
					CHANNELS 3 Zrotation Yrotation Xrotation
					JOINT LeftToeBase
					{
						OFFSET 0.157640 -0.433110 2.322550
						CHANNELS 3 Zrotation Yrotation Xrotation
						End Site
						{
							OFFSET 0.000000 0.000000 0.000000
						}
					}
				}
			}
		}
	}
	JOINT RHipJoint
	{
		OFFSET 0.000000 0.000000 0.000000
		CHANNELS 3 Zrotation Yrotation Xrotation
		JOINT RightUpLeg
		{
			OFFSET -1.305520 -1.794630 0.839290
			CHANNELS 3 Zrotation Yrotation Xrotation
			JOINT RightLeg
			{
				OFFSET -2.542530 -6.985550 0.000000
				CHANNELS 3 Zrotation Yrotation Xrotation
				JOINT RightFoot
				{
					OFFSET -2.568260 -7.056230 0.000000
					CHANNELS 3 Zrotation Yrotation Xrotation
					JOINT RightToeBase
					{
						OFFSET -0.164730 -0.452590 2.363150
						CHANNELS 3 Zrotation Yrotation Xrotation
						End Site
						{
							OFFSET 0.000000 0.000000 0.000000
						}
					}
				}
			}
		}
	}
}
MOTION
Frames: 28
Frame Time: 0.008333
4.684207 17.328019 0.271138 -172.617888 -67.186104 -160.838866 -10.758550 0.089830 -3.321752 -11.100715 27.075903 -27.152566 -3.338297 -1.516778 -6.419539 1.847152 13.911734 5.232844 3.492900 -0.000000 -39.767800 8.855465 -0.195393 4.589405 3.146465 11.481494 -28.839659 3.262769 1.840414 -6.041843 1.199861 4.994399 12.351238 0.893300 -0.000000 -59.149901
4.673271 17.328701 0.269915 -172.704528 -66.640379 -160.948083 -10.807322 0.171261 -3.307219 -11.123773 27.481740 -26.995396 -3.350095 -1.498586 -6.402062 1.853943 13.942207 5.176748 3.475701 0.000000 -39.753500 8.821098 -0.209368 4.690395 3.099224 11.689502 -28.734373 3.289901 1.847611 -5.974682 1.239720 5.227551 12.387081 0.970100 0.000000 -59.218600
4.663059 17.329724 0.270814 -172.786428 -66.144429 -161.089558 -10.860758 0.253777 -3.283419 -11.129942 27.861120 -26.813234 -3.359166 -1.481783 -6.396136 1.858108 13.960880 5.130331 3.458000 -0.000000 -39.732800 8.786338 -0.227264 4.784207 3.068246 11.855528 -28.599945 3.317958 1.854178 -5.907964 1.277583 5.449169 12.423736 1.043099 0.000000 -59.307600
4.653626 17.331186 0.273895 -172.861915 -65.700683 -161.265052 -10.917794 0.336323 -3.251216 -11.114621 28.208947 -26.603206 -3.364612 -1.466107 -6.397374 1.860516 13.973539 5.093069 3.441000 0.000000 -39.707500 8.752601 -0.248659 4.867950 3.057552 11.972205 -28.432052 3.347156 1.859912 -5.845875 1.314002 5.664937 12.464860 1.114800 0.000000 -59.422300
4.645084 17.333141 0.279223 -172.929360 -65.309351 -161.476356 -10.977261 0.418022 -3.211993 -11.074613 28.521941 -26.363285 -3.365637 -1.451155 -6.402464 1.862109 13.986196 5.065016 3.426600 0.000000 -39.679100 8.721314 -0.272599 4.938558 3.070382 12.033016 -28.225897 3.377748 1.864854 -5.794144 1.349502 5.880028 12.515091 1.187400 -0.000000 -59.567700
4.637279 17.335629 0.286874 -172.985242 -64.969381 -161.723893 -11.037960 0.498306 -3.167556 -11.008978 28.798896 -26.093044 -3.361833 -1.436576 -6.409636 1.863644 14.003492 5.046407 3.415700 0.000000 -39.650800 8.693874 -0.297854 4.993314 3.108593 12.033131 -27.978747 3.409994 1.869252 -5.758901 1.384591 6.099217 12.579650 1.263199 0.000000 -59.747800
4.630190 17.338715 0.296973 -173.028740 -64.677188 -162.006201 -11.098446 0.576759 -3.120384 -10.919427 29.041243 -25.794226 -3.353178 -1.421946 -6.418835 1.865641 14.028376 5.038439 3.409500 0.000001 -39.625800 8.671569 -0.322692 5.029806 3.172459 11.970332 -27.689659 3.444006 1.873450 -5.745858 1.419643 6.326000 12.663357 1.343900 0.000000 -59.964300
4.623350 17.342391 0.309566 -173.054361 -64.427153 -162.320193 -11.157608 0.653374 -3.072951 -10.809956 29.252613 -25.470313 -3.340131 -1.407156 -6.432391 1.868354 14.061889 5.041785 3.408400 -0.000000 -39.607600 8.655439 -0.345607 5.046579 3.260318 11.845201 -27.360894 3.479885 1.877904 -5.759190 1.454964 6.563163 12.770487 1.431100 0.000001 -60.217800
4.616614 17.346651 0.324796 -173.061391 -64.211471 -162.661877 -11.214190 0.728155 -3.028473 -10.686519 29.439772 -25.125908 -3.323542 -1.391966 -6.453144 1.871680 14.102702 5.057421 3.412100 0.000000 -39.599700 8.646234 -0.364805 5.042781 3.368869 11.661468 -26.997539 3.517441 1.882839 -5.800442 1.490643 6.811903 12.903838 1.525600 -0.000000 -60.506199
4.609566 17.351423 0.342676 -173.048396 -64.020927 -163.024707 -11.267333 0.801248 -2.989928 -10.556557 29.611577 -24.766996 -3.304699 -1.376460 -6.485378 1.875245 14.147740 5.085425 3.419900 0.000000 -39.605100 8.644255 -0.379068 5.019013 3.492629 11.426452 -26.607715 3.556248 1.888338 -5.868160 1.526630 7.072424 13.064085 1.627900 0.000000 -60.826600
4.601863 17.356613 0.363247 -173.014297 -63.846119 -163.401646 -11.316486 0.872812 -2.960059 -10.428278 29.777843 -24.400381 -3.285166 -1.360854 -6.532764 1.878411 14.192275 5.125411 3.430400 -0.000000 -39.627399 8.649300 -0.387775 4.977150 3.625151 11.150527 -26.202481 3.595647 1.894173 -5.957176 1.562653 7.343326 13.249445 1.737600 0.000000 -61.171200
4.593297 17.362107 0.386444 -172.964284 -63.677378 -163.782903 -11.361211 0.942890 -2.941971 -10.310481 29.950676 -24.032188 -3.266911 -1.345465 -6.598716 1.880117 14.229327 5.176606 3.441700 -0.000000 -39.667400 8.660892 -0.390815 4.920209 3.758169 10.847071 -25.793388 3.634449 1.899778 -6.060608 1.598194 7.621553 13.455994 1.853600 0.000000 -61.536601
4.583653 17.367718 0.412144 -172.900999 -63.506121 -164.158789 -11.399298 1.010391 -2.937901 -10.210866 30.138972 -23.690716 -3.253137 -1.327773 -6.638109 1.873543 14.252268 5.209402 3.451800 0.000000 -39.727901 8.675391 -0.389470 4.851161 3.889129 10.541567 -25.517680 3.665274 1.882672 -5.914326 1.618559 7.908655 13.532870 1.974000 0.000000 -61.913299
4.572810 17.373331 0.440071 -172.833354 -63.322479 -164.518049 -11.424071 1.071969 -2.950311 -10.136480 30.349358 -23.460405 -3.250451 -1.295900 -6.480402 1.836354 14.252099 5.119863 3.458500 0.000001 -39.809500 8.693277 -0.383787 4.775745 4.005184 10.242705 -25.303294 3.690949 1.856952 -5.679836 1.631460 8.194533 13.570622 2.096001 -0.000000 -62.294600
4.560806 17.378816 0.469874 -172.769438 -63.124622 -164.849014 -11.442830 1.131005 -2.979146 -10.093513 30.590351 -23.263438 -3.255209 -1.263093 -6.304855 1.791010 14.227597 5.014958 3.460100 0.000000 -39.910801 8.715349 -0.374896 4.699047 4.095534 9.960657 -25.104887 3.712366 1.831537 -5.466563 1.642363 8.468900 13.628482 2.216400 0.000000 -62.674800
4.547687 17.384127 0.501087 -172.716265 -62.911054 -165.141489 -11.456374 1.187824 -3.021731 -10.084086 30.856357 -23.100437 -3.267039 -1.230310 -6.117442 1.739773 14.182351 4.897097 3.456900 -0.000000 -40.024799 8.740288 -0.363902 4.626099 4.153576 9.707856 -24.924306 3.728858 1.807421 -5.283281 1.651703 8.721695 13.708733 2.330900 0.000000 -63.041500
4.533557 17.389219 0.533078 -172.687997 -62.677329 -165.382735 -11.465354 1.243736 -3.078350 -10.115518 31.156817 -22.972328 -3.287659 -1.197979 -5.923158 1.683085 14.108355 4.774510 3.446800 0.000000 -40.157300 8.767419 -0.352129 4.561890 4.171944 9.493395 -24.759711 3.739837 1.785533 -5.141461 1.661208 8.949785 13.815227 2.437400 0.000000 -63.400200
4.518715 17.394197 0.565208 -172.695780 -62.425188 -165.563834 -11.471031 1.300185 -3.145102 -10.189284 31.484013 -22.875073 -3.316177 -1.166861 -5.731245 1.624085 14.009332 4.656469 3.430300 0.000000 -40.301400 8.795632 -0.340560 4.510156 4.146313 9.322844 -24.610842 3.744863 1.766371 -5.044658 1.671250 9.146138 13.948019 2.532601 0.000000 -63.739700
4.503378 17.399087 0.596946 -172.742667 -62.162888 -165.680934 -11.474840 1.357660 -3.215007 -10.299022 31.811766 -22.799873 -3.348918 -1.138128 -5.552446 1.568171 13.903059 4.549509 3.411300 -0.000000 -40.441300 8.823621 -0.329742 4.472449 4.076551 9.198658 -24.480105 3.743645 1.749974 -4.988225 1.681177 9.299849 14.100716 2.611601 -0.000000 -64.051600
4.488102 17.403988 0.627743 -172.834692 -61.897830 -165.731403 -11.477594 1.416428 -3.284444 -10.441053 32.123773 -22.738434 -3.383520 -1.112558 -5.396460 1.519018 13.799276 4.461529 3.391500 -0.000000 -40.570000 8.850964 -0.319774 4.448327 3.963194 9.119180 -24.366887 3.735890 1.736097 -4.968666 1.690575 9.405600 14.268728 2.672000 -0.000000 -64.329200
4.473537 17.408896 0.657148 -172.979253 -61.635015 -165.713996 -11.479347 1.476945 -3.356103 -10.615295 32.424829 -22.682169 -3.420415 -1.090079 -5.269898 1.477369 13.690941 4.404090 3.369400 -0.000000 -40.693800 8.878834 -0.310375 4.434998 3.805850 9.078229 -24.263990 3.721058 1.724279 -4.985818 1.699399 9.464863 14.448729 2.713600 0.000000 -64.585400
4.460060 17.413815 0.685047 -173.164331 -61.388169 -165.637051 -11.480546 1.537361 -3.424859 -10.806857 32.677700 -22.619846 -3.454054 -1.071374 -5.180001 1.448264 13.603469 4.374914 3.349899 0.000000 -40.794100 8.906835 -0.299709 4.427324 3.611246 9.072827 -24.174955 3.699060 1.713535 -5.022569 1.704825 9.466267 14.627600 2.731800 -0.000001 -64.805800
4.448282 17.418683 0.711360 -173.386943 -61.164216 -165.506316 -11.480367 1.596381 -3.493131 -11.009165 32.875468 -22.544978 -3.483161 -1.056006 -5.129467 1.432517 13.539007 4.375606 3.333200 0.000000 -40.871100 8.936276 -0.285344 4.419037 3.384124 9.096383 -24.097234 3.669807 1.703148 -5.070539 1.705395 9.408970 14.797492 2.725900 -0.000000 -64.995200
4.438222 17.423391 0.736157 -173.632160 -60.969938 -165.330287 -11.478290 1.652629 -3.561930 -11.214533 33.007154 -22.454863 -3.506173 -1.043662 -5.119158 1.430909 13.502265 4.402380 3.319800 0.000000 -40.921900 8.968058 -0.264713 4.403593 3.131990 9.141471 -24.030241 3.634143 1.692972 -5.121623 1.700141 9.293450 14.951682 2.695701 -0.000000 -65.151800
4.430055 17.427792 0.759608 -173.888141 -60.809909 -165.117327 -11.472775 1.704011 -3.634176 -11.416415 33.067132 -22.351099 -3.522390 -1.033615 -5.145575 1.442547 13.494315 4.448132 3.309701 0.000000 -40.945399 9.003244 -0.234784 4.374992 2.861239 9.205752 -23.976286 3.592378 1.682527 -5.165247 1.687441 9.117437 15.081927 2.640000 0.000000 -65.277600
4.423266 17.431742 0.781957 -174.136456 -60.687256 -164.875118 -11.462658 1.748721 -3.711896 -11.611344 33.054156 -22.241003 -3.532135 -1.025462 -5.203049 1.465929 13.512688 4.504490 3.302100 0.000000 -40.941800 9.042344 -0.193801 4.329368 2.578598 9.286849 -23.939051 3.545476 1.671951 -5.195635 1.666592 8.882245 15.183974 2.559100 0.000001 -65.372100
4.417452 17.435135 0.803400 -174.368032 -60.603328 -164.610376 -11.447466 1.785651 -3.794547 -11.799028 32.973150 -22.135198 -3.536621 -1.019066 -5.283721 1.497971 13.550349 4.561203 3.295600 0.000000 -40.913001 9.084516 -0.142003 4.267012 2.290747 9.382040 -23.921857 3.494801 1.661834 -5.212110 1.638190 8.592831 15.256548 2.454900 0.000000 -65.434900
4.412054 17.437726 0.824217 -174.577546 -60.558995 -164.332150 -11.428059 1.814271 -3.878788 -11.979413 32.835249 -22.041951 -3.537481 -1.014648 -5.376300 1.534750 13.598888 4.605717 3.288200 0.000000 -40.863400 9.127308 -0.083038 4.194119 2.000456 9.493713 -23.924965 3.441004 1.652356 -5.214845 1.602660 8.252319 15.298578 2.328300 0.000000 -65.469800
